<?xml version="1.0" standalone="no"?>
<!DOCTYPE svg PUBLIC "-//W3C//DTD SVG 20010904//EN"
 "http://www.w3.org/TR/2001/REC-SVG-20010904/DTD/svg10.dtd">
<svg version="1.0" xmlns="http://www.w3.org/2000/svg"
 width="24.000000pt" height="24.000000pt" viewBox="0 0 24.000000 24.000000"
 preserveAspectRatio="xMidYMid meet">

<g transform="translate(0.000000,24.000000) scale(0.100000,-0.100000)"
fill="#000000" stroke="none">
<path d="M70 215 l24 -25 23 22 c13 12 23 23 23 25 0 2 -21 3 -47 3 l-46 0 23
-25z m40 0 c-10 -12 -16 -13 -26 -4 -20 16 -18 19 12 19 22 0 25 -2 14 -15z"/>
<path d="M10 95 l0 -95 30 0 30 0 0 95 0 95 -30 0 -30 0 0 -95z m50 45 c0 -33
-3 -40 -20 -40 -17 0 -20 7 -20 40 0 33 3 40 20 40 17 0 20 -7 20 -40z m0 -90
c0 -33 -3 -40 -20 -40 -17 0 -20 7 -20 40 0 33 3 40 20 40 17 0 20 -7 20 -40z"/>
<path d="M120 95 l0 -95 55 0 55 0 0 95 0 95 -55 0 -55 0 0 -95z m50 45 c0
-33 -3 -40 -20 -40 -17 0 -20 7 -20 40 0 33 3 40 20 40 17 0 20 -7 20 -40z
m50 0 c0 -33 -3 -40 -20 -40 -17 0 -20 7 -20 40 0 33 3 40 20 40 17 0 20 -7
20 -40z m-50 -90 c0 -33 -3 -40 -20 -40 -17 0 -20 7 -20 40 0 33 3 40 20 40
17 0 20 -7 20 -40z m50 0 c0 -33 -3 -40 -20 -40 -17 0 -20 7 -20 40 0 33 3 40
20 40 17 0 20 -7 20 -40z"/>
</g>
</svg>
